<?xml version="1.0" encoding="utf-8"?>
<!-- Generator: Adobe Illustrator 19.0.0, SVG Export Plug-In . SVG Version: 6.00 Build 0)  -->
<svg version="1.1" id="Layer_1" xmlns="http://www.w3.org/2000/svg" xmlns:xlink="http://www.w3.org/1999/xlink" x="0px" y="0px"
	 viewBox="0 0 604 348" style="enable-background:new 0 0 604 348;" xml:space="preserve">
<style type="text/css">
	.st0{clip-path:url(#XMLID_22_);fill:#FFFFFF;stroke:#000000;stroke-width:2;stroke-miterlimit:10;}
	.st1{clip-path:url(#XMLID_22_);fill:none;stroke:#000000;stroke-width:2;stroke-miterlimit:10;}
	.st2{clip-path:url(#XMLID_22_);stroke:#000000;stroke-width:2;stroke-miterlimit:10;}
	.st3{clip-path:url(#XMLID_22_);}
	.st4{font-family:'SpecialElite-Regular';}
	.st5{font-size:30px;}
</style>
<g id="XMLID_20_">
	<defs>
		<rect id="XMLID_19_" width="604" height="348"/>
	</defs>
	<clipPath id="XMLID_22_">
		<use xlink:href="#XMLID_19_"  style="overflow:visible;"/>
	</clipPath>
	<rect id="XMLID_2_" x="133.5" y="5.5" class="st0" width="337" height="337"/>
	
		<rect id="XMLID_1_" x="265" y="74.3" transform="matrix(0.7071 0.7071 -0.7071 0.7071 167.1783 -180.9375)" class="st0" width="74" height="74"/>
	
		<rect id="XMLID_3_" x="265" y="179" transform="matrix(0.7071 0.7071 -0.7071 0.7071 241.1783 -150.2857)" class="st0" width="74" height="74"/>
	
		<rect id="XMLID_4_" x="317.3" y="126.7" transform="matrix(0.7071 0.7071 -0.7071 0.7071 219.5042 -202.6116)" class="st0" width="74" height="74"/>
	
		<rect id="XMLID_5_" x="212.7" y="126.7" transform="matrix(0.7071 0.7071 -0.7071 0.7071 188.8524 -128.6116)" class="st0" width="74" height="74"/>
	<circle id="XMLID_6_" class="st0" cx="419.2" cy="46.5" r="12.5"/>
	<line id="XMLID_7_" class="st1" x1="430.6" y1="163.7" x2="487.7" y2="163.7"/>
	<polygon id="XMLID_8_" class="st2" points="430.6,168.2 414.6,163.7 430.6,159.2 	"/>
	<line id="XMLID_10_" class="st1" x1="115" y1="242" x2="261.8" y2="242"/>
	<line id="XMLID_12_" class="st1" x1="115" y1="163.1" x2="170.8" y2="163.1"/>
	<polygon id="XMLID_11_" class="st2" points="170.8,158.6 186.8,163.1 170.8,167.6 	"/>
	<line id="XMLID_14_" class="st1" x1="354.7" y1="86" x2="487.7" y2="86"/>
	<polygon id="XMLID_13_" class="st2" points="354.7,90.5 338.7,86 354.7,81.5 	"/>
	<polygon id="XMLID_15_" class="st2" points="249.7,237.5 265.7,242 249.7,246.5 	"/>
	<g id="XMLID_9_" class="st3">
		<text transform="matrix(1 0 0 1 5.2083 169.8677)" class="st4 st5">Crvena</text>
	</g>
	<g id="XMLID_16_" class="st3">
		<text transform="matrix(1 0 0 1 7.4165 248.917)" class="st4 st5">Zelena</text>
	</g>
	<g id="XMLID_17_" class="st3">
		<text transform="matrix(1 0 0 1 493.6667 95.3333)" class="st4 st5">Plava</text>
	</g>
	<g id="XMLID_18_" class="st3">
		<text transform="matrix(1 0 0 1 493.6664 173.9995)" class="st4 st5">Žuta</text>
	</g>
</g>
</svg>
